<svg xmlns="http://www.w3.org/2000/svg" version="1.1" xmlns:xlink="http://www.w3.org/1999/xlink" width="512" height="512"><svg xmlns="http://www.w3.org/2000/svg" viewBox="0 0 512 512"><title>Artboard 115</title><g id="SvgjsG1035" data-name="Afro Business Man"><rect x="341.33333" y="192" width="42.66667" height="64" rx="21.33331" ry="21.33331" style="fill:#361200"></rect><rect x="128" y="192" width="42.66667" height="64" rx="21.33331" ry="21.33331" style="fill:#552a1f"></rect><path d="M192,277.33333v64a21.33334,21.33334,0,0,1-21.33333,21.33334h-64A85.33333,85.33333,0,0,0,21.33333,448v42.66667H490.66667V448a85.33333,85.33333,0,0,0-85.33334-85.33333h-64A21.33334,21.33334,0,0,1,320,341.33333v-64Z" style="fill:#552a1f"></path><path d="M341.33333,362.66667A21.33356,21.33356,0,0,1,320,341.33333v-64H256v85.33334l21.33333,0V384l-42.66666,0v21.33331a21.33333,21.33333,0,1,0,42.66666,0h85.33334V362.66667Z" style="fill:#361200"></path><path d="M256,384V490.66667H490.66667V448a85.33333,85.33333,0,0,0-85.33334-85.33333h-64L320,341.33333Z" style="fill:#95daec"></path><polygon points="298.667 448 298.667 490.667 256 490.667 256 426.667 277.333 405.333 341.333 405.333 298.667 448" style="fill:#3ebcdd"></polygon><path d="M192,341.33333,256,384V490.66667H21.33333V448a85.33333,85.33333,0,0,1,85.33334-85.33333h64Z" style="fill:#caecf6"></path><rect x="170.66667" y="405.33333" width="21.33333" height="85.33333" style="fill:#95daec"></rect><polygon points="213.333 405.333 234.667 426.667 213.333 490.667 298.667 490.667 277.333 426.667 301.334 406.667 256 384 213.333 405.333" style="fill:#ce464d"></polygon><rect x="234.66667" y="384" width="42.66667" height="21.33333" style="fill:#d7686d"></rect><rect x="234.66667" y="448" width="21.33333" height="42.66667" style="fill:#d7686d"></rect><rect x="234.66667" y="469.33333" width="21.33333" height="21.33333" style="fill:#e8a8ab"></rect><rect x="234.66667" y="426.66667" width="42.66667" height="21.33333" style="fill:#ab0008"></rect><rect x="256" y="405.33333" width="21.33333" height="21.33333" style="fill:#c6262d"></rect><path d="M170.66667,341.33333H192l-21.33333,21.33334v128H21.33333V448a85.33333,85.33333,0,0,1,85.33334-85.33333h42.66669Z" style="fill:#345460"></path><path d="M320,341.33333l21.33333,21.33329v128H490.66667V448a85.33333,85.33333,0,0,0-85.33334-85.33333H362.66664l-21.33331-21.33334Z" style="fill:#224552"></path><path d="M362.66664,362.66667S448,384,469.33333,490.66667H362.66666Z" style="fill:#062d3c"></path><path d="M64,490.66667H42.66667V448a64.07,64.07,0,0,1,64-64v21.33333A42.71555,42.71555,0,0,0,64,448Z" style="fill:#607a8a"></path><rect x="149.33333" y="42.66667" width="213.33333" height="298.66656" rx="106.66656" ry="106.66656" style="fill:#8f492b"></rect><path d="M320,64.48307v84.85026H277.33333v21.33334H320v42.66659a21.33333,21.33333,0,0,1,21.33333,21.33333v.00008A21.33333,21.33333,0,0,1,320,256H256v64h21.33333v19.18359a106.69065,106.69065,0,0,0,85.33334-104.51692V149.33333C362.66667,114.54948,345.76562,83.95443,320,64.48307Z" style="fill:#552a1f"></path><rect x="234.66667" y="256" width="42.66667" height="21.33333" style="fill:#062d3c"></rect><rect x="256" y="256" width="21.33333" height="21.33333" style="fill:#012334"></rect><path d="M277.33333,320V298.66667H234.66667V320H213.33333a42.66667,42.66667,0,0,0,85.33334,0Z" style="fill:#062d3c"></path><rect x="256" y="298.66667" width="21.33333" height="42.66667" style="fill:#012334"></rect><rect x="213.33333" y="277.33333" width="21.33333" height="21.33333" style="fill:#062d3c"></rect><rect x="213.33333" y="256" width="21.33333" height="21.33333" style="fill:#552a1f"></rect><rect x="277.33333" y="277.33333" width="21.33333" height="21.33333" style="fill:#012334"></rect><rect x="277.33333" y="256" width="21.33333" height="21.33333" style="fill:#361200"></rect><path d="M149.33333,213.33333h21.33334v-128S192,64,256,64s85.33333,21.33333,85.33333,21.33333v128h21.33331L362.66669,192,384,170.66667V149.33321A127.99987,127.99987,0,0,0,256.00013,21.33333h-.00026A127.99987,127.99987,0,0,0,128,149.33321v21.33346L149.33331,192Z" style="fill:#062d3c"></path><path d="M256,21.33333a128.80171,128.80171,0,0,0-15.50651,1.02995c-3.27344,6.7487-5.82682,14.4336-5.82682,22.444a44.11289,44.11289,0,0,0,5.13021,19.86719C244.974,64.34766,250.11979,64,256,64c64,0,85.33333,21.33333,85.33333,21.33333v128h21.33334V192L384,170.66667V149.33333A127.99966,127.99966,0,0,0,256,21.33333Z" style="fill:#012334"></path><rect x="149.33333" y="85.33333" width="21.33333" height="21.33333" style="fill:#224552"></rect><rect x="149.33333" y="128" width="21.33333" height="21.33333" style="fill:#224552"></rect><rect x="341.33333" y="85.33333" width="21.33333" height="21.33333" style="fill:#062d3c"></rect><rect x="341.33333" y="128" width="21.33333" height="21.33333" style="fill:#062d3c"></rect><polygon points="234.667 234.667 234.667 256 277.333 256 277.333 192 320 192 320 170.667 256 170.667 256 234.667 234.667 234.667" style="fill:#361200"></polygon><rect x="298.66667" y="192" width="21.33333" height="21.33333" style="fill:#290300"></rect><rect x="192" y="192" width="21.33333" height="21.33333" style="fill:#290300"></rect><rect x="234.66667" y="277.33333" width="42.66667" height="21.33333" style="fill:#c6262d"></rect><polygon points="192 341.333 170.667 362.667 170.667 426.667 256 384 192 341.333" style="fill:#e7f6fa"></polygon><polygon points="256 384 341.333 426.667 341.333 362.667 320 341.333 256 384" style="fill:#caecf6"></polygon><path d="M170.66667,341.33333s-64,21.33334-85.33334,85.33334L128,448,85.33333,490.66667h85.33334V341.33333Z" style="fill:#4c6a74"></path><path d="M341.33333,341.33333s64,21.33334,85.33334,85.33334L384,448l42.66667,42.66667H341.33333V341.33333Z" style="fill:#345460"></path><polygon points="149.333 384 170.667 362.667 170.667 490.667 149.333 490.667 149.333 384" style="fill:#345460"></polygon><polygon points="341.333 362.667 362.667 384 362.667 490.667 341.333 490.667 341.333 362.667" style="fill:#4c6a74"></polygon></g></svg><style>@media (prefers-color-scheme: light) { :root { filter: none; } }
@media (prefers-color-scheme: dark) { :root { filter: none; } }
</style></svg>